<?xml version="1.0" standalone="no"?><!DOCTYPE svg PUBLIC "-//W3C//DTD SVG 1.1//EN" "http://www.w3.org/Graphics/SVG/1.1/DTD/svg11.dtd"><svg t="1765700730361" class="icon" viewBox="0 0 1024 1024" version="1.1" xmlns="http://www.w3.org/2000/svg" p-id="1265" xmlns:xlink="http://www.w3.org/1999/xlink" width="200" height="200"><path d="M510.91 164.93a46.51 46.51 0 0 1 23.58 6.41L800.43 327.6a46.55 46.55 0 0 1 23 40.13v292.82a46.54 46.54 0 0 1-23 40.14L542.79 852a46.55 46.55 0 0 1-46.46 0.39L230.23 702a46.54 46.54 0 0 1-23.64-39.58l-6-294.15a46.54 46.54 0 0 1 22.86-41L487.23 171.4a46.51 46.51 0 0 1 23.68-6.47m0-61a107.62 107.62 0 0 0-54.7 15L192.45 274.75a107.69 107.69 0 0 0-52.81 94.76l6 294.15a108 108 0 0 0 54.62 91.44l266.1 150.34a107.55 107.55 0 0 0 107.34-0.89l257.6-151.28a107.94 107.94 0 0 0 53.08-92.73V367.73A108 108 0 0 0 831.33 275L565.39 118.76a107.62 107.62 0 0 0-54.48-14.82z" p-id="1266" fill="#A883FC"></path><path d="M511.82 500L262.56 356.7l249.26-137.24L755 356.7zM324.75 357.27l186.88 107.45L694 357.27l-182.36-102.9zM508.44 810.88l-260-152V373l260 150zM278.88 641.36l199.06 116.37V540.61L278.88 425.77zM525.62 811.6V531l228 140.3z m30.5-226V757l139.3-85.72z" fill="#A883FC" p-id="1267"></path></svg>